<svg viewBox="0 0 24 24" fill="none" xmlns="http://www.w3.org/2000/svg">
<path d="M17.4503 21.5709C17.2536 21.5709 17.0636 21.5236 16.8915 21.4328L12.0026 18.8598L7.11663 21.4272C6.91995 21.5321 6.69394 21.5785 6.47456 21.5624C6.24667 21.5435 6.03485 21.4669 5.85613 21.3364C5.67646 21.2059 5.53651 21.0272 5.45235 20.821C5.36914 20.6149 5.34455 20.3879 5.38143 20.1676L6.31475 14.7275L2.36113 10.875C2.20227 10.719 2.0888 10.5233 2.03584 10.3058C1.981 10.0864 1.98951 9.85946 2.05854 9.64764C2.12662 9.43677 2.25428 9.24764 2.42638 9.10296C2.5947 8.96018 2.80274 8.86751 3.02401 8.83441L8.48778 8.04671L10.9294 3.09358C11.0286 2.89216 11.1809 2.72479 11.37 2.60659C11.7539 2.37018 12.2532 2.37207 12.6324 2.60659C12.8225 2.72384 12.9757 2.89311 13.074 3.09452L15.5156 8.04671L20.9756 8.84103C21.1978 8.87318 21.4049 8.9668 21.576 9.11053C21.7472 9.25521 21.8739 9.44433 21.942 9.65615C22.0101 9.86702 22.0186 10.093 21.9656 10.3096C21.9089 10.5308 21.7964 10.7275 21.6375 10.8817L17.6914 14.7341L18.6238 20.1723C18.6616 20.3898 18.6371 20.6177 18.5529 20.8267C18.4678 21.0338 18.3278 21.2116 18.1491 21.3421C17.9676 21.4716 17.7567 21.5492 17.5354 21.5671C17.5089 21.57 17.4796 21.5709 17.4503 21.5709ZM12.5624 17.7979L17.4494 20.37L16.4045 14.3152L20.8025 10.0221L14.7203 9.14268L11.9988 3.62312L9.28493 9.14457L3.198 10.0221L7.60457 14.3067L6.56439 20.369L12.0026 17.5019L12.5624 17.7979Z" fill="currentColor"/>
<path opacity="0.44" d="M11.9988 3.62701L9.28585 9.14752L3.19893 10.026L7.6055 14.3106L6.56532 20.3729L12.0036 17.5049L12.5634 17.8008L17.4503 20.3739L16.4054 14.3181L20.8025 10.026L14.7203 9.14657L11.9988 3.62701Z" fill="currentColor"/>
</svg>
