<svg viewBox="0 0 24 24" fill="none" xmlns="http://www.w3.org/2000/svg">
<g opacity="0.44">
<path d="M13.4977 17.765H3.50177C2.67274 17.765 2 18.4376 2 19.2668V21.9976H14.9995V19.2668C14.9995 18.4376 14.3268 17.765 13.4977 17.765Z" fill="currentColor"/>
</g>
<path d="M21.7305 17.9767L12.6058 8.85204L14.3683 7.09275C14.6589 7.34901 15.1057 7.33648 15.3807 7.0615C15.6682 6.77091 15.6682 6.30527 15.3807 6.01467L11.5809 2.21795C11.2934 1.92735 10.8247 1.92735 10.5372 2.21795C10.2466 2.50545 10.2466 2.97418 10.5372 3.26165L10.506 3.2304L5.68111 8.05206L5.71236 8.08641C5.42486 7.79581 4.95613 7.79581 4.66866 8.08641C4.37806 8.37391 4.37806 8.84264 4.66866 9.13015L8.46538 12.93C8.75598 13.2175 9.22471 13.2175 9.51222 12.93C9.79972 12.6394 9.79972 12.1738 9.51222 11.8832L9.54347 11.9144L11.3059 10.1551L20.4274 19.2766C20.7868 19.636 21.3711 19.636 21.7305 19.2766C22.0898 18.9173 22.0898 18.336 21.7305 17.9767Z" fill="currentColor"/>
</svg>
