<svg viewBox="0 0 18 18" fill="none" xmlns="http://www.w3.org/2000/svg">
<path d="M12.8891 13.5962C12.7954 13.69 12.6682 13.7426 12.5356 13.7426C12.403 13.7426 12.2758 13.69 12.182 13.5962L9.00005 10.4142L5.81807 13.5962C5.7243 13.69 5.59713 13.7426 5.46452 13.7426C5.33191 13.7426 5.20473 13.69 5.11096 13.5962L4.40386 12.8891C4.31009 12.7953 4.25741 12.6681 4.25741 12.5355C4.25741 12.4029 4.31009 12.2757 4.40386 12.182L7.58584 9L4.40386 5.81802C4.31009 5.72425 4.25741 5.59707 4.25741 5.46447C4.25741 5.33186 4.31009 5.20468 4.40386 5.11091L5.11096 4.40381C5.20473 4.31004 5.33191 4.25736 5.46452 4.25736C5.59713 4.25736 5.7243 4.31004 5.81807 4.40381L9.00005 7.58579L12.182 4.40381C12.2758 4.31004 12.403 4.25736 12.5356 4.25736C12.6682 4.25736 12.7954 4.31004 12.8891 4.40381L13.5962 5.11091C13.69 5.20468 13.7427 5.33186 13.7427 5.46447C13.7427 5.59707 13.69 5.72425 13.5962 5.81802L10.4143 9L13.5962 12.182C13.69 12.2757 13.7427 12.4029 13.7427 12.5355C13.7427 12.6681 13.69 12.7953 13.5962 12.8891L12.8891 13.5962Z" fill="currentColor"/>
</svg>
