<svg viewBox="0 0 10 13" fill="none" xmlns="http://www.w3.org/2000/svg">
<path d="M4.5 13C4.36739 13 4.24021 12.9473 4.14645 12.8536C4.05268 12.7598 4 12.6326 4 12.5V11.5C4 11.3674 4.05268 11.2402 4.14645 11.1464C4.24021 11.0527 4.36739 11 4.5 11H5.5C5.63261 11 5.75978 11.0527 5.85355 11.1464C5.94732 11.2402 6 11.3674 6 11.5V12.5C6 12.6326 5.94732 12.7598 5.85355 12.8536C5.75978 12.9473 5.63261 13 5.5 13H4.5ZM3.591 9.868V8.209H4.851C5.21914 8.21464 5.58456 8.14521 5.92498 8.00496C6.26541 7.86472 6.57369 7.65658 6.83102 7.39326C7.08835 7.12994 7.28934 6.81696 7.42172 6.4734C7.5541 6.12984 7.6151 5.76291 7.601 5.395C7.6151 5.02709 7.5541 4.66016 7.42172 4.31661C7.28934 3.97305 7.08835 3.66006 6.83102 3.39674C6.57369 3.13342 6.26541 2.92529 5.92498 2.78504C5.58456 2.64479 5.21914 2.57537 4.851 2.581C4.48335 2.57382 4.11815 2.64236 3.77811 2.78234C3.43807 2.92231 3.13047 3.13075 2.87442 3.39468C2.61837 3.6586 2.41935 3.97238 2.28973 4.31651C2.16012 4.66063 2.10269 5.02774 2.121 5.395H0.335998C0.330619 4.80255 0.444043 4.21503 0.669567 3.66715C0.895092 3.11927 1.22814 2.62216 1.64904 2.20518C2.06994 1.78819 2.57015 1.4598 3.12011 1.23941C3.67007 1.01901 4.25862 0.911086 4.851 0.922002C5.44444 0.910656 6.03415 1.01814 6.58542 1.23813C7.13669 1.45813 7.63838 1.78618 8.06096 2.20298C8.48353 2.61978 8.81846 3.11691 9.04602 3.6651C9.27358 4.21329 9.38918 4.80147 9.386 5.395C9.38918 5.98854 9.27358 6.57671 9.04602 7.1249C8.81846 7.67309 8.48353 8.17022 8.06096 8.58702C7.63838 9.00382 7.13669 9.33188 6.58542 9.55187C6.03415 9.77186 5.44444 9.87935 4.851 9.868H3.591Z" fill="currentColor"/>
</svg>
