<svg viewBox="0 0 24 24" fill="none" xmlns="http://www.w3.org/2000/svg">
<path opacity="0.44" d="M14.7082 16.9602C14.4938 16.7382 14.3751 16.4408 14.3778 16.1321C14.3805 15.8234 14.5043 15.5281 14.7226 15.3098C14.9409 15.0915 15.2361 14.9677 15.5448 14.965C15.8535 14.9624 16.1509 15.081 16.373 15.2955L21.0823 20.0048C21.2967 20.2268 21.4154 20.5242 21.4127 20.8329C21.41 21.1416 21.2862 21.4369 21.0679 21.6552C20.8496 21.8735 20.5543 21.9973 20.2457 22C19.937 22.0026 19.6396 21.884 19.4175 21.6695L14.7082 16.9602Z" fill="currentColor"/>
<path d="M2.59 10.2413C2.59 8.6113 3.07334 7.01793 3.9789 5.66267C4.88446 4.3074 6.17157 3.25109 7.67746 2.62733C9.18336 2.00357 10.8404 1.84037 12.439 2.15836C14.0377 2.47635 15.5061 3.26125 16.6587 4.41381C17.8113 5.56637 18.5962 7.03483 18.9142 8.63347C19.2322 10.2321 19.069 11.8892 18.4452 13.3951C17.8214 14.901 16.7651 16.1881 15.4099 17.0936C14.0546 17.9992 12.4612 18.4825 10.8313 18.4825C8.64554 18.4825 6.54934 17.6143 5.00381 16.0687C3.45827 14.5232 2.59 12.427 2.59 10.2413H2.59Z" fill="currentColor"/>
</svg>
