<svg viewBox="0 0 16 16" fill="none" xmlns="http://www.w3.org/2000/svg">
<path d="M3.125 14L12.875 14C13.4963 14 14 13.4627 14 12.8C14 12.1373 13.4963 11.6 12.875 11.6L3.125 11.6C2.50368 11.6 2 12.1373 2 12.8C2 13.4627 2.50368 14 3.125 14Z" fill="currentColor"/>
<path opacity="0.44" d="M9.125 2.00003C9.42337 2.00003 9.70952 2.12646 9.9205 2.3515C10.1315 2.57654 10.25 2.88177 10.25 3.20003C10.25 3.51829 10.1315 3.82351 9.9205 4.04856C9.70952 4.2736 9.42337 4.40003 9.125 4.40003L6.875 4.40003C6.57663 4.40003 6.29048 4.2736 6.0795 4.04856C5.86853 3.82351 5.75 3.51829 5.75 3.20003C5.75 2.88177 5.86853 2.57654 6.0795 2.3515C6.29048 2.12646 6.57663 2.00003 6.875 2.00003L9.125 2.00003ZM11.375 6.80003C11.6734 6.80003 11.9595 6.92646 12.1705 7.1515C12.3815 7.37654 12.5 7.68177 12.5 8.00003C12.5 8.31829 12.3815 8.62351 12.1705 8.84856C11.9595 9.0736 11.6734 9.20003 11.375 9.20003L4.625 9.20003C4.32663 9.20003 4.04048 9.0736 3.8295 8.84856C3.61853 8.62351 3.5 8.31829 3.5 8.00003C3.5 7.68177 3.61853 7.37654 3.8295 7.1515C4.04048 6.92646 4.32663 6.80003 4.625 6.80003L11.375 6.80003Z" fill="currentColor"/>
</svg>
